<?xml version="1.0" encoding="UTF-8" ?>
<!DOCTYPE svg PUBLIC "-//W3C//DTD SVG 1.1//EN" "http://www.w3.org/Graphics/SVG/1.1/DTD/svg11.dtd">
<svg width="297pt" height="317pt" viewBox="0 0 297 317" version="1.1" xmlns="http://www.w3.org/2000/svg">
<g id="#ffffffff">
<path fill="#ffffff" opacity="1.00" d=" M 96.16 19.26 C 102.08 18.31 108.04 19.73 113.97 19.83 C 126.24 20.10 138.51 19.99 150.78 20.12 C 150.74 46.07 150.66 72.02 150.83 97.96 C 146.93 97.87 143.46 96.03 139.93 94.62 C 140.09 94.39 140.43 93.95 140.59 93.72 C 138.06 94.13 136.14 91.94 134.10 90.80 C 116.97 78.13 103.15 61.67 90.06 45.01 C 88.04 42.88 88.15 39.83 88.04 37.10 C 88.08 33.77 87.77 30.03 90.15 27.35 C 89.85 23.60 92.99 20.66 96.16 19.26 M 102.91 26.43 C 112.28 29.34 122.43 29.08 132.02 27.40 C 122.31 27.36 112.59 27.21 102.91 26.43 M 89.63 31.41 C 94.41 45.92 106.11 56.31 115.62 67.71 C 107.09 55.06 94.22 44.52 90.87 28.98 C 90.44 29.79 90.03 30.60 89.63 31.41 M 118.18 58.98 C 118.97 62.72 121.23 65.87 123.38 68.93 C 129.03 76.53 136.58 83.36 145.90 85.89 C 133.96 80.39 124.77 70.13 118.18 58.98 Z" />
<path fill="#ffffff" opacity="1.00" d=" M 189.07 19.86 C 194.70 19.72 200.35 18.30 205.99 19.13 C 209.66 20.25 213.77 23.79 212.49 28.05 C 212.91 28.16 213.74 28.39 214.16 28.50 C 214.76 34.46 216.32 41.69 211.71 46.49 C 199.30 62.01 186.33 77.39 170.47 89.52 C 164.93 93.33 158.98 97.56 152.04 97.86 C 152.12 71.95 152.02 46.04 152.10 20.13 C 164.42 19.98 176.74 20.07 189.07 19.86 M 172.19 27.23 L 172.09 27.78 C 181.32 29.01 190.88 29.05 199.93 26.64 C 190.69 26.84 181.44 27.73 172.19 27.23 M 212.10 28.10 C 211.00 35.13 207.34 41.43 203.22 47.12 C 198.17 54.27 192.03 60.59 187.05 67.79 C 196.83 56.13 209.12 45.53 213.47 30.39 C 213.02 29.62 212.56 28.86 212.10 28.10 M 157.04 85.90 C 169.79 81.96 179.93 71.20 184.91 59.02 C 177.98 70.00 169.02 80.34 157.04 85.90 Z" />
<path fill="#ffffff" opacity="1.00" d=" M 66.97 59.90 C 72.01 52.64 79.21 46.77 87.60 43.87 C 91.21 49.02 95.32 53.80 99.32 58.65 C 99.12 59.45 97.91 60.46 98.77 61.22 C 99.49 62.01 100.50 61.04 101.30 60.91 C 110.50 71.94 120.52 82.41 132.03 91.05 C 138.74 95.62 146.54 100.67 155.05 98.99 C 162.30 97.21 168.53 92.78 174.39 88.34 C 189.97 75.43 203.24 59.95 215.31 43.79 C 221.11 46.14 226.60 49.41 230.98 53.92 C 237.96 60.97 241.94 70.44 244.58 79.82 C 241.32 84.47 237.62 88.81 234.40 93.49 C 229.37 100.67 223.56 107.67 221.46 116.38 C 220.12 107.46 220.95 98.31 221.16 89.31 C 221.72 88.58 222.29 87.85 222.85 87.12 C 222.39 86.20 221.94 85.27 221.52 84.34 C 219.93 86.30 220.63 88.73 220.77 91.00 C 220.00 102.32 219.86 113.68 219.95 125.03 C 220.01 127.78 218.77 130.29 218.03 132.88 C 215.48 140.78 213.83 148.93 211.83 156.98 C 210.73 157.62 209.81 158.76 211.37 159.55 C 209.69 170.34 207.82 181.13 207.29 192.06 C 207.18 198.29 205.65 204.48 206.48 210.73 C 207.21 184.02 211.47 157.33 219.66 131.87 C 220.55 136.54 220.56 141.31 221.06 146.03 C 222.76 163.42 224.84 180.77 227.21 198.08 C 227.62 201.26 228.82 204.94 226.45 207.65 C 226.74 207.71 227.30 207.85 227.59 207.91 C 228.19 212.23 227.99 216.61 228.05 220.96 C 228.02 229.03 228.02 237.38 225.16 245.04 C 224.31 248.17 220.65 248.43 217.96 248.65 C 193.00 249.66 168.03 250.93 143.05 250.70 C 123.37 250.24 103.70 249.42 84.03 248.64 C 80.97 248.65 77.76 247.07 77.20 243.80 C 73.56 231.25 75.04 217.97 75.13 205.09 C 75.04 202.62 75.31 200.17 75.61 197.73 C 74.49 198.23 73.45 198.88 72.47 199.62 C 72.80 201.55 73.05 203.53 72.67 205.48 C 70.73 216.43 68.99 227.42 67.42 238.43 L 66.23 238.33 C 67.20 243.89 65.63 249.39 65.09 254.91 C 64.26 262.04 63.47 269.48 59.82 275.82 C 58.36 278.71 54.82 278.98 51.97 278.95 C 43.95 278.77 35.94 278.32 27.93 277.89 C 22.60 266.38 22.38 253.39 23.08 240.96 C 23.04 236.91 25.82 233.05 23.95 229.06 L 26.37 229.54 C 25.82 229.28 24.71 228.75 24.16 228.49 C 28.51 199.76 35.86 171.58 39.88 142.80 C 40.27 142.86 41.05 142.97 41.44 143.03 C 41.11 140.71 40.20 138.35 40.92 136.02 C 43.63 123.31 47.65 110.93 51.48 98.53 C 53.52 92.76 55.02 86.79 57.56 81.21 C 63.99 89.86 70.71 98.33 76.34 107.54 C 80.56 114.88 81.96 123.56 81.48 131.94 C 80.23 154.18 77.04 176.24 74.32 198.33 L 75.79 197.37 C 78.50 175.87 81.41 154.37 82.89 132.74 C 84.88 135.45 85.20 139.00 86.29 142.14 C 91.20 160.40 94.78 179.13 95.53 198.06 C 95.89 193.76 95.39 189.46 95.08 185.18 C 93.14 165.74 89.26 146.46 83.25 127.87 C 82.24 117.62 83.53 107.23 82.41 96.97 C 81.92 93.06 82.78 89.07 81.40 85.28 C 82.00 95.97 82.61 106.70 81.72 117.42 C 80.16 110.72 76.59 104.82 72.60 99.31 C 73.23 98.14 73.61 96.86 73.46 95.50 C 72.99 96.46 72.52 97.42 72.06 98.38 C 67.48 92.08 62.83 85.83 58.09 79.65 C 60.45 72.83 62.91 65.93 66.97 59.90 Z" />
<path fill="#ffffff" opacity="1.00" d=" M 228.05 105.06 C 233.41 96.85 239.32 89.01 245.34 81.28 C 251.82 98.69 257.27 116.52 261.70 134.56 C 262.69 137.55 261.89 140.63 261.21 143.58 C 263.67 142.84 263.19 145.43 263.58 146.88 C 267.55 174.07 274.63 200.71 278.50 227.92 C 278.67 229.26 278.75 230.62 278.73 231.99 C 278.20 231.18 277.14 229.55 276.60 228.73 C 277.90 233.11 280.05 237.36 279.88 242.05 C 280.20 254.00 280.46 266.80 274.78 277.67 C 269.24 278.57 263.58 278.31 257.99 278.73 C 253.53 278.58 248.44 280.02 244.45 277.56 C 238.54 270.32 238.73 260.29 237.28 251.51 C 236.23 246.51 236.82 241.29 235.19 236.42 C 233.60 226.29 232.10 216.15 230.30 206.06 C 229.88 203.59 230.08 201.07 230.42 198.61 C 228.83 198.65 228.19 197.65 228.25 196.16 C 225.68 175.14 222.70 154.15 221.43 133.00 C 220.72 123.34 222.44 113.13 228.05 105.06 Z" />
<path fill="#ffffff" opacity="1.00" d=" M 81.64 249.82 C 112.41 251.01 143.21 252.92 174.01 251.65 C 189.71 251.20 205.41 250.55 221.10 249.79 C 221.29 257.85 221.12 265.91 221.19 273.97 C 184.31 278.55 146.99 278.69 109.93 276.70 C 100.47 275.98 90.99 275.28 81.62 273.79 C 81.67 265.80 81.64 257.81 81.64 249.82 Z" />
<path fill="#ffffff" opacity="1.00" d=" M 28.27 279.33 C 36.84 279.69 45.41 280.15 53.99 280.34 C 53.86 288.27 52.59 296.14 52.03 304.05 C 44.77 304.20 37.51 304.07 30.25 304.13 C 29.49 295.87 29.08 287.58 28.27 279.33 Z" />
<path fill="#ffffff" opacity="1.00" d=" M 248.59 280.41 C 257.23 280.11 265.87 279.79 274.50 279.30 C 273.93 287.57 273.22 295.83 272.69 304.10 C 265.44 303.91 258.08 304.55 250.90 303.81 C 249.92 296.04 249.39 288.20 248.59 280.41 Z" />
</g>
<g id="#222222ff">
<path fill="#222222" opacity="1.00" d=" M 88.56 22.54 C 90.83 19.05 94.63 16.13 98.97 16.23 C 104.34 16.16 109.65 17.20 115.02 17.24 C 140.34 17.41 165.67 17.63 190.99 17.09 C 197.63 17.16 205.42 14.10 211.11 18.89 C 217.67 24.39 217.83 33.83 217.06 41.67 C 225.86 45.13 233.64 51.30 238.68 59.35 C 243.12 66.12 245.44 73.95 248.37 81.42 C 253.40 95.79 257.94 110.33 262.03 124.99 C 263.47 130.89 265.03 136.79 265.62 142.86 C 267.78 158.36 271.03 173.69 274.01 189.05 C 278.80 212.68 284.37 236.71 282.15 260.98 C 281.65 267.35 279.65 273.43 277.31 279.32 C 276.22 288.39 276.04 297.57 274.92 306.65 C 266.12 306.87 257.31 306.84 248.52 306.69 C 247.44 298.22 247.19 289.65 245.81 281.22 C 244.26 280.49 242.56 279.83 241.58 278.34 C 238.08 273.63 236.97 267.70 236.05 262.03 C 234.24 249.44 232.96 236.76 230.47 224.29 C 230.57 232.49 230.25 241.15 226.35 248.58 C 225.50 249.08 224.65 249.59 223.80 250.10 C 223.86 258.73 223.88 267.37 223.73 276.01 C 214.41 277.74 204.93 278.37 195.49 279.10 C 156.81 281.40 117.85 281.20 79.37 276.31 C 78.39 267.58 79.40 258.76 78.80 250.00 C 75.22 248.28 74.48 244.01 73.61 240.53 C 72.69 235.18 71.91 229.69 72.52 224.26 C 70.46 232.41 69.84 240.86 68.51 249.16 C 67.03 258.37 67.05 268.21 62.44 276.58 C 61.24 278.98 58.85 280.36 56.67 281.74 C 56.12 290.02 55.05 298.25 54.44 306.53 C 45.62 307.08 36.76 306.68 27.93 306.75 C 26.87 297.81 26.58 288.80 25.67 279.84 C 25.07 277.16 23.61 274.77 22.89 272.13 C 20.22 262.99 19.86 253.37 20.29 243.92 C 21.08 229.13 23.56 214.48 26.60 200.00 C 30.73 179.39 35.16 158.82 37.93 137.97 C 39.65 127.94 42.78 118.23 45.66 108.49 C 49.10 97.22 52.58 85.95 56.98 75.02 C 59.88 66.44 63.85 57.91 70.54 51.60 C 74.80 47.19 80.17 44.07 85.74 41.60 C 85.15 35.19 85.21 28.27 88.56 22.54 M 96.16 19.26 C 92.99 20.66 89.85 23.60 90.15 27.35 C 87.77 30.03 88.08 33.77 88.04 37.10 C 88.15 39.83 88.04 42.88 90.06 45.01 C 103.15 61.67 116.97 78.13 134.10 90.80 C 136.14 91.94 138.06 94.13 140.59 93.72 C 140.43 93.95 140.09 94.39 139.93 94.62 C 143.46 96.03 146.93 97.87 150.83 97.96 C 150.66 72.02 150.74 46.07 150.78 20.12 C 138.51 19.99 126.24 20.10 113.97 19.83 C 108.04 19.73 102.08 18.31 96.16 19.26 M 189.07 19.86 C 176.74 20.07 164.42 19.98 152.10 20.13 C 152.02 46.04 152.12 71.95 152.04 97.86 C 158.98 97.56 164.93 93.33 170.47 89.52 C 186.33 77.39 199.30 62.01 211.71 46.49 C 216.32 41.69 214.76 34.46 214.16 28.50 C 213.74 28.39 212.91 28.16 212.49 28.05 C 213.77 23.79 209.66 20.25 205.99 19.13 C 200.35 18.30 194.70 19.72 189.07 19.86 M 66.97 59.90 C 62.91 65.93 60.45 72.83 58.09 79.65 C 62.83 85.83 67.48 92.08 72.06 98.38 C 72.52 97.42 72.99 96.46 73.46 95.50 C 73.61 96.86 73.23 98.14 72.60 99.31 C 76.59 104.82 80.16 110.72 81.72 117.42 C 82.61 106.70 82.00 95.97 81.40 85.28 C 82.78 89.07 81.92 93.06 82.41 96.97 C 83.53 107.23 82.24 117.62 83.25 127.87 C 89.26 146.46 93.14 165.74 95.08 185.18 C 95.39 189.46 95.89 193.76 95.53 198.06 C 94.78 179.13 91.20 160.40 86.29 142.14 C 85.20 139.00 84.88 135.45 82.89 132.74 C 81.41 154.37 78.50 175.87 75.79 197.37 L 74.32 198.33 C 77.04 176.24 80.23 154.18 81.48 131.94 C 81.96 123.56 80.56 114.88 76.34 107.54 C 70.71 98.33 63.99 89.86 57.56 81.21 C 55.02 86.79 53.52 92.76 51.48 98.53 C 47.65 110.93 43.63 123.31 40.92 136.02 C 40.20 138.35 41.11 140.71 41.44 143.03 C 41.05 142.97 40.27 142.86 39.88 142.80 C 35.86 171.58 28.51 199.76 24.16 228.49 C 24.71 228.75 25.82 229.28 26.37 229.54 L 23.95 229.06 C 25.82 233.05 23.04 236.91 23.08 240.96 C 22.38 253.39 22.60 266.38 27.93 277.89 C 35.94 278.32 43.95 278.77 51.97 278.95 C 54.82 278.98 58.36 278.71 59.82 275.82 C 63.47 269.48 64.26 262.04 65.09 254.91 C 65.63 249.39 67.20 243.89 66.23 238.33 L 67.42 238.43 C 68.99 227.42 70.73 216.43 72.67 205.48 C 73.05 203.53 72.80 201.55 72.47 199.62 C 73.45 198.88 74.49 198.23 75.61 197.73 C 75.31 200.17 75.04 202.62 75.13 205.09 C 75.04 217.97 73.56 231.25 77.20 243.80 C 77.76 247.07 80.97 248.65 84.03 248.64 C 103.70 249.42 123.37 250.24 143.05 250.70 C 168.03 250.93 193.00 249.66 217.96 248.65 C 220.65 248.43 224.31 248.17 225.16 245.04 C 228.02 237.38 228.02 229.03 228.05 220.96 C 227.99 216.61 228.19 212.23 227.59 207.91 C 227.30 207.85 226.74 207.71 226.45 207.65 C 228.82 204.94 227.62 201.26 227.21 198.08 C 224.84 180.77 222.76 163.42 221.06 146.03 C 220.56 141.31 220.55 136.54 219.66 131.87 C 211.47 157.33 207.21 184.02 206.48 210.73 C 205.65 204.48 207.18 198.29 207.29 192.06 C 207.82 181.13 209.69 170.34 211.37 159.55 C 209.81 158.76 210.73 157.62 211.83 156.98 C 213.83 148.93 215.48 140.78 218.03 132.88 C 218.77 130.29 220.01 127.78 219.95 125.03 C 219.86 113.68 220.00 102.32 220.77 91.00 C 220.63 88.73 219.93 86.30 221.52 84.34 C 221.94 85.27 222.39 86.20 222.85 87.12 C 222.29 87.85 221.72 88.58 221.16 89.31 C 220.95 98.31 220.12 107.46 221.46 116.38 C 223.56 107.67 229.37 100.67 234.40 93.49 C 237.62 88.81 241.32 84.47 244.58 79.82 C 241.94 70.44 237.96 60.97 230.98 53.92 C 226.60 49.41 221.11 46.14 215.31 43.79 C 203.24 59.95 189.97 75.43 174.39 88.34 C 168.53 92.78 162.30 97.21 155.05 98.99 C 146.54 100.67 138.74 95.62 132.03 91.05 C 120.52 82.41 110.50 71.94 101.30 60.91 C 100.50 61.04 99.49 62.01 98.77 61.22 C 97.91 60.46 99.12 59.45 99.32 58.65 C 95.32 53.80 91.21 49.02 87.60 43.87 C 79.21 46.77 72.01 52.64 66.97 59.90 M 228.05 105.06 C 222.44 113.13 220.72 123.34 221.43 133.00 C 222.70 154.15 225.68 175.14 228.25 196.16 C 228.19 197.65 228.83 198.65 230.42 198.61 C 230.08 201.07 229.88 203.59 230.30 206.06 C 232.10 216.15 233.60 226.29 235.19 236.42 C 236.82 241.29 236.23 246.51 237.28 251.51 C 238.73 260.29 238.54 270.32 244.45 277.56 C 248.44 280.02 253.53 278.58 257.99 278.73 C 263.58 278.31 269.24 278.57 274.78 277.67 C 280.46 266.80 280.20 254.00 279.88 242.05 C 280.05 237.36 277.90 233.11 276.60 228.73 C 277.14 229.55 278.20 231.18 278.73 231.99 C 278.75 230.62 278.67 229.26 278.50 227.92 C 274.63 200.71 267.55 174.07 263.58 146.88 C 263.19 145.43 263.67 142.84 261.21 143.58 C 261.89 140.63 262.69 137.55 261.70 134.56 C 257.27 116.52 251.82 98.69 245.34 81.28 C 239.32 89.01 233.41 96.85 228.05 105.06 M 81.64 249.82 C 81.64 257.81 81.67 265.80 81.62 273.79 C 90.99 275.28 100.47 275.98 109.93 276.70 C 146.99 278.69 184.31 278.55 221.19 273.97 C 221.12 265.91 221.29 257.85 221.10 249.79 C 205.41 250.55 189.71 251.20 174.01 251.65 C 143.21 252.92 112.41 251.01 81.64 249.82 M 28.27 279.33 C 29.08 287.58 29.49 295.87 30.25 304.13 C 37.51 304.07 44.77 304.20 52.03 304.05 C 52.59 296.14 53.86 288.27 53.99 280.34 C 45.41 280.15 36.84 279.69 28.27 279.33 M 248.59 280.41 C 249.39 288.20 249.92 296.04 250.90 303.81 C 258.08 304.55 265.44 303.91 272.69 304.10 C 273.22 295.83 273.93 287.57 274.50 279.30 C 265.87 279.79 257.23 280.11 248.59 280.41 Z" />
<path fill="#222222" opacity="1.00" d=" M 102.91 26.43 C 112.59 27.21 122.31 27.36 132.02 27.40 C 122.43 29.08 112.28 29.34 102.91 26.43 Z" />
<path fill="#222222" opacity="1.00" d=" M 172.19 27.23 C 181.44 27.73 190.69 26.84 199.93 26.64 C 190.88 29.05 181.32 29.01 172.09 27.78 L 172.19 27.23 Z" />
<path fill="#222222" opacity="1.00" d=" M 212.10 28.10 C 212.56 28.86 213.02 29.62 213.47 30.39 C 209.12 45.53 196.83 56.13 187.05 67.79 C 192.03 60.59 198.17 54.27 203.22 47.12 C 207.34 41.43 211.00 35.13 212.10 28.10 Z" />
<path fill="#222222" opacity="1.00" d=" M 89.63 31.41 C 90.03 30.60 90.44 29.79 90.87 28.98 C 94.22 44.52 107.09 55.06 115.62 67.71 C 106.11 56.31 94.41 45.92 89.63 31.41 Z" />
<path fill="#222222" opacity="1.00" d=" M 118.18 58.98 C 124.77 70.13 133.96 80.39 145.90 85.89 C 136.58 83.36 129.03 76.53 123.38 68.93 C 121.23 65.87 118.97 62.72 118.18 58.98 Z" />
<path fill="#222222" opacity="1.00" d=" M 157.04 85.90 C 169.02 80.34 177.98 70.00 184.91 59.02 C 179.93 71.20 169.79 81.96 157.04 85.90 Z" />
</g>
</svg>
