<?xml version="1.0" encoding="UTF-8" ?>
<!DOCTYPE svg PUBLIC "-//W3C//DTD SVG 1.1//EN" "http://www.w3.org/Graphics/SVG/1.1/DTD/svg11.dtd">
<svg width="291pt" height="317pt" viewBox="0 0 291 317" version="1.1" xmlns="http://www.w3.org/2000/svg">
<g id="#fcfcfcff">
<path fill="#fcfcfc" opacity="1.00" d=" M 105.67 27.55 C 107.42 25.51 109.58 23.90 111.66 22.21 C 120.62 24.35 129.83 25.13 138.98 25.98 C 152.05 26.54 165.09 24.73 177.95 22.58 C 180.07 24.08 182.02 25.83 183.43 28.04 C 177.07 30.23 170.76 32.98 163.96 33.38 C 150.39 35.09 136.58 34.83 123.03 33.01 C 116.99 32.14 111.30 29.82 105.67 27.55 Z" />
<path fill="#fcfcfc" opacity="1.00" d=" M 97.16 31.25 C 99.64 30.15 102.00 28.47 104.74 28.15 C 113.60 33.37 124.03 34.29 134.02 35.45 C 148.28 35.88 162.85 35.86 176.64 31.76 C 179.33 30.96 182.11 30.14 184.20 28.16 C 203.92 36.84 222.57 48.10 239.22 61.79 C 233.62 65.17 229.78 71.44 229.04 77.90 C 231.48 71.91 233.96 65.21 240.18 62.20 C 243.61 67.56 245.69 73.69 248.47 79.41 C 259.61 103.40 270.54 127.82 281.60 151.64 C 270.48 157.94 259.26 164.53 246.82 167.92 C 241.69 168.89 236.60 170.01 231.51 171.15 C 231.65 169.61 231.93 168.08 232.33 166.58 C 231.34 157.15 230.96 147.67 229.48 138.28 C 228.72 143.90 230.42 149.42 230.50 155.03 C 230.64 159.99 231.59 164.94 230.80 169.90 C 231.00 212.20 230.88 254.51 231.45 296.81 C 218.63 298.17 205.75 297.71 192.93 298.74 C 165.95 299.14 138.97 298.84 111.99 298.94 C 102.68 298.91 93.35 298.88 84.07 298.07 C 74.99 298.13 65.93 297.54 56.89 296.82 C 56.90 293.11 56.89 289.40 56.88 285.69 C 62.88 286.66 68.98 286.05 75.02 286.30 C 85.08 286.88 95.17 286.73 105.24 286.47 C 98.14 286.24 91.03 286.35 83.93 286.38 C 79.55 286.43 75.22 285.61 70.84 285.85 C 70.54 285.85 69.94 285.85 69.65 285.86 C 65.40 285.65 61.15 285.78 56.90 285.51 C 57.36 248.67 57.16 211.83 57.39 175.00 C 57.47 173.51 57.63 172.02 57.87 170.55 C 54.15 171.30 50.68 169.43 47.09 168.86 C 40.46 167.65 33.85 166.02 27.63 163.40 C 20.68 159.45 13.66 155.60 6.62 151.81 C 7.29 150.37 7.96 148.93 8.66 147.50 C 12.27 149.99 16.47 151.47 20.09 153.94 C 20.26 154.39 20.59 155.28 20.75 155.73 C 21.95 155.98 23.16 156.22 24.39 156.17 C 19.74 152.32 13.79 150.59 9.01 146.97 C 20.46 120.69 32.91 94.82 44.57 68.62 C 45.80 65.85 47.20 63.14 49.34 60.96 C 54.61 62.30 57.19 67.16 60.63 70.81 C 58.79 66.40 55.49 62.51 51.00 60.67 C 55.58 55.59 61.67 52.25 67.18 48.30 C 76.78 41.95 86.78 36.22 97.16 31.25 Z" />
</g>
<g id="#7d7d7dff">
<path fill="#7d7d7d" opacity="1.00" d=" M 111.38 20.55 C 117.32 20.64 123.03 22.79 128.97 23.12 C 142.93 25.08 157.11 24.03 170.96 21.75 C 173.64 21.38 176.35 20.36 179.08 20.83 C 181.02 22.57 182.61 24.65 184.38 26.56 C 203.31 34.41 220.84 45.45 237.08 57.88 C 239.37 59.84 242.32 61.39 243.43 64.37 C 256.69 93.36 269.91 122.37 283.25 151.32 C 283.90 152.79 281.98 153.35 281.09 154.03 C 272.88 158.23 264.98 163.08 256.36 166.41 C 248.64 169.78 240.13 170.52 232.12 172.96 C 232.17 214.82 233.42 256.68 232.88 298.53 C 197.34 301.02 161.65 300.05 126.04 300.24 C 106.71 300.15 87.35 300.54 68.06 299.15 C 63.83 298.95 59.57 299.19 55.38 298.41 C 55.47 257.95 55.83 217.48 55.87 177.01 C 55.84 175.52 55.74 174.03 55.63 172.55 C 49.78 171.33 44.03 169.72 38.18 168.56 C 25.91 165.99 15.83 158.06 4.76 152.65 C 5.93 147.93 8.81 143.92 10.42 139.37 C 22.08 114.29 33.44 89.06 45.02 63.94 C 45.86 61.89 47.57 60.47 49.36 59.27 C 65.95 46.18 84.13 35.05 103.50 26.59 C 106.34 24.88 108.36 21.92 111.38 20.55 M 105.67 27.55 C 111.30 29.82 116.99 32.14 123.03 33.01 C 136.58 34.83 150.39 35.09 163.96 33.38 C 170.76 32.98 177.07 30.23 183.43 28.04 C 182.02 25.83 180.07 24.08 177.95 22.58 C 165.09 24.73 152.05 26.54 138.98 25.98 C 129.83 25.13 120.62 24.35 111.66 22.21 C 109.58 23.90 107.42 25.51 105.67 27.55 M 97.16 31.25 C 86.78 36.22 76.78 41.95 67.18 48.30 C 61.67 52.25 55.58 55.59 51.00 60.67 C 55.49 62.51 58.79 66.40 60.63 70.81 C 57.19 67.16 54.61 62.30 49.34 60.96 C 47.20 63.14 45.80 65.85 44.57 68.62 C 32.91 94.82 20.46 120.69 9.01 146.97 C 13.79 150.59 19.74 152.32 24.39 156.17 C 23.16 156.22 21.95 155.98 20.75 155.73 C 20.59 155.28 20.26 154.39 20.09 153.94 C 16.47 151.47 12.27 149.99 8.66 147.50 C 7.96 148.93 7.29 150.37 6.62 151.81 C 13.66 155.60 20.68 159.45 27.63 163.40 C 33.85 166.02 40.46 167.65 47.09 168.86 C 50.68 169.43 54.15 171.30 57.87 170.55 C 57.63 172.02 57.47 173.51 57.39 175.00 C 57.16 211.83 57.36 248.67 56.90 285.51 C 61.15 285.78 65.40 285.65 69.65 285.86 C 69.94 285.85 70.54 285.85 70.84 285.85 C 75.22 285.61 79.55 286.43 83.93 286.38 C 91.03 286.35 98.14 286.24 105.24 286.47 C 95.17 286.73 85.08 286.88 75.02 286.30 C 68.98 286.05 62.88 286.66 56.88 285.69 C 56.89 289.40 56.90 293.11 56.89 296.82 C 65.93 297.54 74.99 298.13 84.07 298.07 C 93.35 298.88 102.68 298.91 111.99 298.94 C 138.97 298.84 165.95 299.14 192.93 298.74 C 205.75 297.71 218.63 298.17 231.45 296.81 C 230.88 254.51 231.00 212.20 230.80 169.90 C 231.59 164.94 230.64 159.99 230.50 155.03 C 230.42 149.42 228.72 143.90 229.48 138.28 C 230.96 147.67 231.34 157.15 232.33 166.58 C 231.93 168.08 231.65 169.61 231.51 171.15 C 236.60 170.01 241.69 168.89 246.82 167.92 C 259.26 164.53 270.48 157.94 281.60 151.64 C 270.54 127.82 259.61 103.40 248.47 79.41 C 245.69 73.69 243.61 67.56 240.18 62.20 C 233.96 65.21 231.48 71.91 229.04 77.90 C 229.78 71.44 233.62 65.17 239.22 61.79 C 222.57 48.10 203.92 36.84 184.20 28.16 C 182.11 30.14 179.33 30.96 176.64 31.76 C 162.85 35.86 148.28 35.88 134.02 35.45 C 124.03 34.29 113.60 33.37 104.74 28.15 C 102.00 28.47 99.64 30.15 97.16 31.25 Z" />
</g>
</svg>
