<?xml version="1.0" encoding="UTF-8" ?>
<!DOCTYPE svg PUBLIC "-//W3C//DTD SVG 1.1//EN" "http://www.w3.org/Graphics/SVG/1.1/DTD/svg11.dtd">
<svg width="266pt" height="317pt" viewBox="0 0 266 317" version="1.1" xmlns="http://www.w3.org/2000/svg">
<g id="#fcfcfcff">
<path fill="#fcfcfc" opacity="1.00" d=" M 101.05 27.34 C 108.33 28.33 115.50 30.03 122.84 30.48 C 136.24 31.88 149.62 29.58 162.81 27.46 C 161.80 29.89 160.78 32.31 159.81 34.74 C 142.28 39.18 123.77 38.93 106.06 35.67 C 102.55 34.69 102.28 30.18 101.05 27.34 Z" />
<path fill="#fcfcfc" opacity="1.00" d=" M 95.11 33.03 C 96.53 31.02 98.46 29.45 100.21 27.73 C 102.59 36.18 107.90 44.15 115.96 48.07 C 125.90 52.86 138.19 52.93 148.04 47.86 C 155.91 43.88 160.91 36.07 163.72 27.95 C 165.14 29.42 166.57 30.88 168.01 32.33 C 163.78 43.84 154.65 54.06 142.68 57.62 C 132.81 61.08 121.57 59.63 112.49 54.61 C 104.39 49.85 97.92 42.02 95.11 33.03 Z" />
<path fill="#fcfcfc" opacity="1.00" d=" M 42.49 64.58 C 58.06 51.77 75.47 41.05 94.02 33.15 C 96.08 41.13 101.41 48.14 107.86 53.15 C 118.68 61.20 133.62 62.52 146.09 57.82 C 153.85 54.80 160.13 48.87 164.75 42.05 C 166.36 39.24 167.88 36.37 168.83 33.26 C 170.07 33.67 171.31 34.12 172.54 34.59 C 189.74 42.42 205.68 52.78 220.64 64.28 C 216.58 65.29 213.11 68.84 212.15 72.86 C 214.31 70.42 216.06 67.59 218.56 65.43 C 219.39 65.48 221.05 65.57 221.88 65.62 C 234.64 92.94 246.75 120.57 259.71 147.80 C 256.44 148.26 253.22 149.04 250.07 150.07 C 237.18 154.41 224.83 160.18 212.59 166.07 C 212.63 163.23 212.86 160.40 213.31 157.60 C 218.25 155.33 223.14 152.97 228.26 151.14 C 236.91 147.86 245.12 143.43 254.05 140.94 C 254.24 140.57 254.62 139.85 254.81 139.48 C 240.96 145.65 226.75 151.00 212.91 157.19 C 212.44 148.17 212.41 139.13 211.21 130.17 C 209.10 115.51 207.91 100.65 208.73 85.84 C 210.28 84.14 210.05 81.70 210.62 79.61 C 210.90 77.76 211.73 75.94 211.47 74.05 C 209.41 77.24 210.02 81.32 208.18 84.56 C 207.93 83.57 207.45 81.58 207.20 80.58 C 208.74 89.36 206.15 98.21 207.70 106.97 C 208.59 112.67 208.28 118.48 209.34 124.15 C 211.93 138.94 212.55 154.02 211.93 169.00 C 212.04 180.30 211.93 191.61 211.95 202.92 C 212.86 229.91 212.58 256.93 212.90 283.93 C 204.26 283.85 195.68 285.28 187.03 284.91 C 174.35 285.21 161.67 285.36 148.99 285.27 C 121.09 285.24 93.18 285.49 65.29 284.71 C 60.26 284.28 55.22 283.91 50.17 283.95 C 50.19 257.00 50.39 230.05 50.51 203.10 C 50.97 182.70 49.65 162.15 52.97 141.92 C 53.62 133.21 56.43 124.80 56.62 116.04 C 56.85 110.02 58.50 104.09 58.00 98.04 C 57.66 93.47 57.21 88.91 56.93 84.33 C 57.50 84.37 58.65 84.45 59.22 84.49 C 58.29 84.05 57.36 83.61 56.43 83.16 C 56.80 94.52 56.74 105.89 55.65 117.20 C 54.07 130.16 51.65 143.02 50.26 155.99 C 43.29 152.82 35.99 150.47 28.95 147.47 C 21.93 144.43 14.83 141.60 7.62 139.06 C 16.44 118.88 25.89 98.98 34.98 78.93 C 37.13 74.60 38.71 69.99 41.20 65.84 C 42.52 65.61 43.84 65.44 45.18 65.32 C 47.97 68.07 51.32 70.53 52.86 74.26 C 54.02 77.09 54.90 80.03 56.24 82.79 C 55.34 76.55 52.79 70.02 47.35 66.40 C 47.79 66.10 48.68 65.50 49.12 65.21 C 48.40 65.42 46.97 65.85 46.26 66.06 C 46.32 65.65 46.43 64.81 46.49 64.40 C 45.15 64.47 43.82 64.53 42.49 64.58 Z" />
<path fill="#fcfcfc" opacity="1.00" d=" M 105.31 37.21 C 122.67 41.00 140.80 40.64 158.19 37.19 C 153.32 44.19 145.65 49.56 137.01 50.29 C 129.72 51.02 121.85 50.60 115.45 46.66 C 111.33 44.41 108.27 40.76 105.31 37.21 Z" />
<path fill="#fcfcfc" opacity="1.00" d=" M 7.40 139.61 C 16.46 142.24 25.04 146.51 33.86 149.90 C 39.38 152.17 45.17 153.85 50.38 156.84 C 50.28 159.91 50.20 162.98 50.11 166.04 C 46.51 164.28 42.87 162.57 39.36 160.62 C 28.40 154.06 16.02 150.10 3.52 147.76 C 4.73 145.01 5.80 142.17 7.40 139.61 Z" />
<path fill="#fcfcfc" opacity="1.00" d=" M 6.82 150.07 C 17.15 152.69 27.78 155.38 36.88 161.18 C 39.30 162.59 41.88 163.69 44.33 165.06 C 41.18 164.46 38.13 163.44 35.03 162.65 C 24.88 160.38 16.03 154.65 6.82 150.07 Z" />
<path fill="#fcfcfc" opacity="1.00" d=" M 218.74 165.05 C 230.89 159.22 243.29 153.76 256.25 149.96 C 248.43 154.36 240.51 158.74 231.96 161.59 C 227.54 162.70 223.19 164.09 218.74 165.05 Z" />
</g>
<g id="#878787ff">
<path fill="#878787" opacity="1.00" d=" M 92.18 32.04 C 95.30 30.73 97.43 27.99 100.11 26.03 C 108.84 25.97 117.33 28.75 126.05 29.18 C 138.80 30.50 151.28 26.82 163.92 26.01 C 166.33 27.93 167.93 30.86 170.88 32.09 C 188.27 39.85 204.61 49.91 219.61 61.63 C 221.42 63.04 223.26 64.58 224.22 66.72 C 235.70 91.94 247.28 117.12 258.79 142.33 C 259.76 144.46 260.94 146.54 261.49 148.84 C 250.95 155.43 239.87 161.71 227.70 164.73 C 223.11 166.13 218.34 166.74 213.68 167.85 C 214.48 206.95 213.64 246.06 214.36 285.16 C 201.65 286.73 188.79 285.96 176.02 286.69 C 159.35 287.09 142.68 286.75 126.00 286.87 C 110.67 286.77 95.32 287.14 79.99 286.42 C 69.61 286.09 59.17 286.48 48.85 285.19 C 48.87 246.05 49.01 206.91 49.14 167.77 C 40.15 165.95 30.99 164.29 22.66 160.29 C 15.31 156.82 8.21 152.85 1.11 148.91 C 12.98 123.44 24.50 97.82 36.25 72.30 C 37.89 69.04 38.82 65.10 41.88 62.81 C 57.31 50.56 74.20 40.12 92.18 32.04 M 101.05 27.34 C 102.28 30.18 102.55 34.69 106.06 35.67 C 123.77 38.93 142.28 39.18 159.81 34.74 C 160.78 32.31 161.80 29.89 162.81 27.46 C 149.62 29.58 136.24 31.88 122.84 30.48 C 115.50 30.03 108.33 28.33 101.05 27.34 M 95.11 33.03 C 97.92 42.02 104.39 49.85 112.49 54.61 C 121.57 59.63 132.81 61.08 142.68 57.62 C 154.65 54.06 163.78 43.84 168.01 32.33 C 166.57 30.88 165.14 29.42 163.72 27.95 C 160.91 36.07 155.91 43.88 148.04 47.86 C 138.19 52.93 125.90 52.86 115.96 48.07 C 107.90 44.15 102.59 36.18 100.21 27.73 C 98.46 29.45 96.53 31.02 95.11 33.03 M 42.49 64.58 C 43.82 64.53 45.15 64.47 46.49 64.40 C 46.43 64.81 46.32 65.65 46.26 66.06 C 46.97 65.85 48.40 65.42 49.12 65.21 C 48.68 65.50 47.79 66.10 47.35 66.40 C 52.79 70.02 55.34 76.55 56.24 82.79 C 54.90 80.03 54.02 77.09 52.86 74.26 C 51.32 70.53 47.97 68.07 45.18 65.32 C 43.84 65.44 42.52 65.61 41.20 65.84 C 38.71 69.99 37.13 74.60 34.98 78.93 C 25.89 98.98 16.44 118.88 7.62 139.06 C 14.83 141.60 21.93 144.43 28.95 147.47 C 35.99 150.47 43.29 152.82 50.26 155.99 C 51.65 143.02 54.07 130.16 55.65 117.20 C 56.74 105.89 56.80 94.52 56.43 83.16 C 57.36 83.61 58.29 84.05 59.22 84.49 C 58.65 84.45 57.50 84.37 56.93 84.33 C 57.21 88.91 57.66 93.47 58.00 98.04 C 58.50 104.09 56.85 110.02 56.62 116.04 C 56.43 124.80 53.62 133.21 52.97 141.92 C 49.65 162.15 50.97 182.70 50.51 203.10 C 50.39 230.05 50.19 257.00 50.17 283.95 C 55.22 283.91 60.26 284.28 65.29 284.71 C 93.18 285.49 121.09 285.24 148.99 285.27 C 161.67 285.36 174.35 285.21 187.03 284.91 C 195.68 285.28 204.26 283.85 212.90 283.93 C 212.58 256.93 212.86 229.91 211.95 202.92 C 211.93 191.61 212.04 180.30 211.93 169.00 C 212.55 154.02 211.93 138.94 209.34 124.15 C 208.28 118.48 208.59 112.67 207.70 106.97 C 206.15 98.21 208.74 89.36 207.20 80.58 C 207.45 81.58 207.93 83.57 208.18 84.56 C 210.02 81.32 209.41 77.24 211.47 74.05 C 211.73 75.94 210.90 77.76 210.62 79.61 C 210.05 81.70 210.28 84.14 208.73 85.84 C 207.91 100.65 209.10 115.51 211.21 130.17 C 212.41 139.13 212.44 148.17 212.91 157.19 C 226.75 151.00 240.96 145.65 254.81 139.48 C 254.62 139.85 254.24 140.57 254.05 140.94 C 245.12 143.43 236.91 147.86 228.26 151.14 C 223.14 152.97 218.25 155.33 213.31 157.60 C 212.86 160.40 212.63 163.23 212.59 166.07 C 224.83 160.18 237.18 154.41 250.07 150.07 C 253.22 149.04 256.44 148.26 259.71 147.80 C 246.75 120.57 234.64 92.94 221.88 65.62 C 221.05 65.57 219.39 65.48 218.56 65.43 C 216.06 67.59 214.31 70.42 212.15 72.86 C 213.11 68.84 216.58 65.29 220.64 64.28 C 205.68 52.78 189.74 42.42 172.54 34.59 C 171.31 34.12 170.07 33.67 168.83 33.26 C 167.88 36.37 166.36 39.24 164.75 42.05 C 160.13 48.87 153.85 54.80 146.09 57.82 C 133.62 62.52 118.68 61.20 107.86 53.15 C 101.41 48.14 96.08 41.13 94.02 33.15 C 75.47 41.05 58.06 51.77 42.49 64.58 M 105.31 37.21 C 108.27 40.76 111.33 44.41 115.45 46.66 C 121.85 50.60 129.72 51.02 137.01 50.29 C 145.65 49.56 153.32 44.19 158.19 37.19 C 140.80 40.64 122.67 41.00 105.31 37.21 M 7.40 139.61 C 5.80 142.17 4.73 145.01 3.52 147.76 C 16.02 150.10 28.40 154.06 39.36 160.62 C 42.87 162.57 46.51 164.28 50.11 166.04 C 50.20 162.98 50.28 159.91 50.38 156.84 C 45.17 153.85 39.38 152.17 33.86 149.90 C 25.04 146.51 16.46 142.24 7.40 139.61 M 6.82 150.07 C 16.03 154.65 24.88 160.38 35.03 162.65 C 38.13 163.44 41.18 164.46 44.33 165.06 C 41.88 163.69 39.30 162.59 36.88 161.18 C 27.78 155.38 17.15 152.69 6.82 150.07 M 218.74 165.05 C 223.19 164.09 227.54 162.70 231.96 161.59 C 240.51 158.74 248.43 154.36 256.25 149.96 C 243.29 153.76 230.89 159.22 218.74 165.05 Z" />
</g>
</svg>
