<?xml version="1.0" encoding="UTF-8" ?>
<!DOCTYPE svg PUBLIC "-//W3C//DTD SVG 1.1//EN" "http://www.w3.org/Graphics/SVG/1.1/DTD/svg11.dtd">
<svg width="291pt" height="317pt" viewBox="0 0 291 317" version="1.1" xmlns="http://www.w3.org/2000/svg">
<g id="#ffffffff">
<path fill="#ffffff" opacity="1.00" d=" M 197.73 19.01 C 199.68 20.88 202.16 22.95 201.96 25.94 C 201.47 31.03 199.31 36.29 195.09 39.39 C 190.62 42.65 184.94 43.06 179.79 44.62 C 171.27 46.66 163.41 50.76 156.10 55.50 C 153.49 54.38 154.28 56.88 153.89 58.07 C 158.58 53.44 164.96 51.29 170.84 48.63 C 178.28 45.52 186.61 45.24 193.96 41.93 C 199.32 39.45 201.54 33.71 203.51 28.57 C 203.84 34.36 205.30 41.30 200.96 46.01 C 189.27 61.07 170.64 69.67 151.90 71.46 C 151.84 69.93 151.78 68.40 151.72 66.87 C 162.37 64.75 172.56 60.65 181.76 54.91 C 181.13 54.82 180.33 54.20 179.81 54.88 C 176.97 57.40 173.41 58.80 169.87 60.02 C 163.82 62.30 157.53 63.85 151.27 65.47 C 149.53 60.39 145.71 56.58 141.82 53.08 C 150.13 48.55 158.69 44.46 167.47 40.93 C 166.96 40.46 166.45 39.98 165.94 39.52 C 169.36 34.45 171.79 28.67 176.04 24.20 C 180.08 19.51 186.88 22.29 191.69 24.12 C 184.96 30.62 176.50 35.14 167.96 38.79 C 167.86 39.25 167.64 40.19 167.53 40.65 C 176.14 36.44 185.14 32.37 192.09 25.60 C 192.84 25.59 194.34 25.57 195.09 25.56 C 194.54 25.09 193.98 24.63 193.44 24.16 C 195.03 22.59 196.38 20.80 197.73 19.01 Z" />
<path fill="#ffffff" opacity="1.00" d=" M 79.27 27.10 C 78.33 23.71 81.35 21.25 83.25 18.94 C 90.02 28.87 100.88 34.62 111.47 39.61 C 121.21 44.57 131.71 48.12 140.83 54.25 C 146.61 58.14 150.81 64.53 150.75 71.67 C 133.08 73.18 114.56 70.98 98.98 62.02 C 91.64 57.98 85.22 52.32 80.02 45.76 C 76.19 41.23 76.99 34.70 77.67 29.25 C 79.20 32.07 80.13 35.23 82.16 37.77 C 84.78 41.16 88.87 43.07 92.98 43.98 C 103.49 46.51 113.81 49.93 123.55 54.67 C 123.73 55.16 124.10 56.15 124.29 56.65 C 124.62 56.47 125.30 56.11 125.64 55.93 C 128.67 57.48 131.18 59.81 133.76 61.99 C 131.08 59.52 128.48 55.24 124.40 55.67 L 124.22 54.31 C 114.69 48.84 104.13 45.40 93.54 42.66 C 85.89 41.41 80.14 34.66 79.27 27.10 M 101.86 60.41 C 108.12 63.56 115.26 65.66 122.29 64.27 C 115.31 63.89 108.68 61.68 101.86 60.41 Z" />
<path fill="#ffffff" opacity="1.00" d=" M 89.32 24.15 C 93.87 22.73 99.53 19.82 103.90 23.14 C 109.07 27.65 111.68 34.23 115.30 39.91 C 106.09 35.72 96.78 31.13 89.32 24.15 Z" />
<path fill="#ffffff" opacity="1.00" d=" M 59.55 54.48 C 64.04 49.29 70.00 45.66 76.19 42.83 C 86.73 58.70 104.41 68.79 122.99 71.94 C 141.58 74.97 161.39 73.63 178.57 65.45 C 189.12 60.45 198.44 52.72 204.77 42.86 C 214.98 46.78 223.59 54.59 228.31 64.48 C 230.64 69.02 232.25 73.88 233.94 78.69 C 227.84 86.69 221.73 94.71 216.16 103.09 C 213.43 107.16 211.56 111.73 210.33 116.46 C 209.28 106.05 209.96 95.60 210.57 85.19 C 209.19 88.30 210.02 91.67 209.63 94.93 C 208.69 104.96 209.35 115.05 209.07 125.10 C 208.46 129.34 206.55 133.26 205.59 137.43 C 200.51 156.21 197.11 175.52 196.22 194.99 C 196.02 199.94 194.85 204.86 195.42 209.84 C 196.31 203.91 196.08 197.94 196.70 191.98 C 198.18 171.68 202.43 151.64 208.29 132.17 L 209.31 132.24 C 210.63 155.08 213.99 177.73 216.77 200.42 C 216.92 213.64 218.33 227.05 215.61 240.12 C 214.88 242.54 214.48 245.79 211.74 246.78 C 209.95 247.65 207.91 247.60 205.98 247.71 C 176.69 248.80 147.37 250.58 118.06 249.34 C 105.19 249.00 92.33 248.43 79.48 247.85 C 75.65 247.56 71.33 248.27 67.98 246.01 C 65.31 241.88 64.87 236.84 64.35 232.07 C 63.43 221.77 64.24 211.43 64.24 201.11 C 66.95 181.43 69.26 161.69 71.38 141.94 C 73.39 141.99 72.11 140.52 71.40 139.73 C 71.64 136.69 71.76 133.65 72.24 130.65 C 80.54 155.87 84.66 182.36 85.53 208.86 C 85.21 181.16 80.97 153.36 72.41 126.96 C 71.56 122.01 72.35 116.94 72.10 111.94 C 71.76 104.95 71.99 97.93 71.29 90.96 C 70.97 88.66 71.79 86.23 70.53 84.13 C 71.42 94.33 71.32 104.59 71.12 114.83 L 70.30 114.80 C 69.30 110.99 67.83 107.29 65.60 104.03 C 59.90 95.30 53.56 87.00 47.22 78.73 C 50.13 70.13 53.36 61.32 59.55 54.48 Z" />
<path fill="#ffffff" opacity="1.00" d=" M 218.21 102.43 C 223.50 94.87 228.76 87.24 234.71 80.19 C 240.59 97.27 246.17 114.48 250.51 132.02 C 250.98 134.30 251.75 136.64 251.15 138.97 C 248.12 154.47 245.64 170.18 245.42 186.00 C 246.18 189.91 244.07 194.79 247.61 197.76 C 247.60 193.44 245.30 189.45 245.66 185.08 C 246.35 171.29 248.52 157.64 251.23 144.12 L 252.53 144.11 C 256.09 169.59 262.41 194.58 266.64 219.95 C 267.17 223.61 267.99 227.28 267.74 231.00 C 265.62 225.85 262.70 221.09 260.02 216.22 C 263.24 223.64 267.93 230.69 268.86 238.90 C 269.72 251.64 269.53 264.98 264.15 276.82 C 256.09 277.42 248.01 277.79 239.93 277.93 C 237.41 277.85 234.21 277.92 232.68 275.52 C 229.11 270.43 228.31 264.08 227.40 258.09 C 226.77 251.12 224.86 244.21 225.65 237.17 L 224.59 237.48 C 223.09 227.28 221.55 217.09 219.74 206.94 C 218.28 200.64 220.09 194.24 221.08 188.00 C 222.61 180.87 224.12 173.66 226.82 166.87 C 227.95 165.16 227.77 163.07 227.68 161.12 C 227.45 162.49 227.25 163.87 227.08 165.26 C 226.48 165.48 225.88 165.71 225.29 165.95 L 226.23 167.23 C 222.68 177.35 220.15 187.77 218.22 198.31 C 217.24 195.27 217.06 192.07 216.64 188.93 C 214.54 172.95 212.60 156.95 211.17 140.90 C 210.77 134.95 210.10 128.97 210.65 123.00 C 211.27 115.63 213.90 108.44 218.21 102.43 Z" />
<path fill="#ffffff" opacity="1.00" d=" M 39.88 99.86 C 42.05 93.27 44.00 86.59 46.62 80.16 C 52.76 87.85 58.49 95.86 63.98 104.02 C 69.61 112.11 71.30 122.33 70.61 132.01 C 69.32 153.96 66.03 175.73 63.57 197.57 C 62.89 197.32 62.21 197.06 61.53 196.80 C 61.87 199.66 62.20 202.57 61.71 205.43 C 60.21 213.63 58.86 221.86 57.66 230.12 C 57.21 233.06 57.03 236.12 55.71 238.85 C 55.98 244.99 54.45 251.01 53.89 257.09 C 52.97 263.39 52.23 270.11 48.53 275.48 C 46.72 278.37 42.85 277.82 39.93 277.95 C 32.26 277.61 24.56 277.58 16.93 276.66 C 12.31 266.47 11.60 255.04 12.01 244.01 C 12.23 240.69 11.94 237.19 13.49 234.13 C 15.85 228.78 18.49 223.53 20.19 217.92 C 17.09 221.48 14.88 225.73 13.37 230.20 C 14.78 213.06 19.21 196.34 22.36 179.47 C 23.79 171.52 25.57 163.65 26.81 155.67 C 27.78 151.28 27.95 146.71 29.43 142.45 C 33.25 159.34 35.75 176.58 35.48 193.93 C 36.57 174.75 33.19 155.73 29.73 136.95 C 32.03 124.34 36.18 112.13 39.88 99.86 M 53.37 160.30 C 53.45 161.63 53.34 163.02 53.87 164.28 C 57.32 174.59 59.60 185.25 61.63 195.90 C 61.70 195.60 61.84 195.00 61.91 194.70 C 60.99 185.50 57.80 176.73 55.35 167.88 C 55.36 167.27 55.38 166.07 55.40 165.47 C 54.61 163.79 53.93 162.06 53.37 160.30 Z" />
<path fill="#ffffff" opacity="1.00" d=" M 71.01 272.80 C 70.72 264.80 70.50 256.70 71.19 248.71 C 103.07 250.27 135.03 251.88 166.96 250.50 C 181.43 250.05 195.89 249.47 210.35 248.79 C 210.40 256.79 210.34 264.79 210.42 272.79 C 179.51 277.15 148.16 277.26 117.01 276.57 C 101.64 275.87 86.21 275.25 71.01 272.80 Z" />
<path fill="#ffffff" opacity="1.00" d=" M 17.51 278.25 C 26.16 278.77 34.81 279.05 43.46 279.38 C 42.66 287.11 42.02 294.87 41.23 302.60 C 39.98 303.47 38.38 303.02 36.97 303.16 C 31.11 303.16 25.25 303.09 19.40 303.21 C 18.72 294.89 18.04 286.57 17.51 278.25 Z" />
<path fill="#ffffff" opacity="1.00" d=" M 237.94 279.41 C 246.54 279.05 255.15 278.67 263.76 278.31 C 262.99 286.58 262.52 294.88 261.77 303.16 C 254.51 303.15 247.26 303.11 240.00 303.17 C 239.33 295.25 238.29 287.36 237.94 279.41 Z" />
</g>
<g id="#1a1a1bff">
<path fill="#1a1a1b" opacity="1.00" d=" M 80.43 18.36 C 86.06 13.04 94.25 16.01 101.07 16.16 C 126.38 16.57 151.69 16.49 177.00 16.24 C 182.73 16.22 188.41 15.02 194.13 15.35 C 198.63 15.55 202.11 19.14 204.10 22.89 C 206.96 28.37 206.70 34.71 206.30 40.69 C 217.85 45.18 227.09 54.57 231.92 65.92 C 239.17 84.00 245.14 102.57 250.41 121.32 C 252.00 127.12 253.54 132.97 254.39 138.93 C 256.15 152.52 258.78 165.98 261.44 179.41 C 265.63 200.80 270.83 222.14 271.75 244.00 C 272.22 255.33 271.41 267.04 266.66 277.50 C 264.99 286.75 265.57 296.34 263.94 305.60 C 255.20 305.92 246.43 305.78 237.68 305.64 C 236.71 297.38 236.27 289.06 235.13 280.82 C 233.13 279.18 230.72 277.84 229.49 275.45 C 225.17 267.51 225.11 258.25 223.69 249.54 C 222.33 241.37 221.87 233.02 219.75 225.00 C 219.68 224.57 219.55 223.70 219.49 223.27 C 219.81 230.06 219.38 237.00 217.31 243.53 C 216.57 245.86 215.18 247.94 213.13 249.32 C 212.78 257.95 213.34 266.60 212.69 275.21 C 196.21 277.53 179.58 278.64 162.96 279.15 C 131.38 279.84 99.59 279.67 68.28 275.06 C 68.10 267.39 68.26 259.71 68.21 252.04 C 68.69 248.97 65.43 247.51 64.42 244.97 C 61.74 238.35 61.60 231.05 61.44 224.01 C 59.44 233.58 58.41 243.33 57.03 253.01 C 55.96 260.37 55.49 268.11 52.03 274.83 C 50.83 277.55 48.23 279.04 45.98 280.75 C 44.92 289.02 44.49 297.36 43.49 305.63 C 34.71 305.89 25.93 305.80 17.15 305.63 C 16.03 297.13 15.82 288.55 14.99 280.02 C 14.85 277.35 13.40 275.04 12.59 272.56 C 9.51 263.75 9.17 254.28 9.38 245.04 C 10.04 226.09 14.00 207.49 17.83 188.98 C 20.72 174.36 23.74 159.75 25.97 145.01 C 27.67 129.01 32.99 113.74 37.61 98.42 C 41.15 87.27 45.08 76.25 49.47 65.40 C 54.29 54.26 63.52 45.29 74.74 40.69 C 74.40 33.02 74.18 23.92 80.43 18.36 M 84.71 18.33 C 85.92 19.93 87.16 21.51 88.45 23.06 C 92.71 21.44 97.27 19.77 101.91 20.54 C 104.25 21.29 105.85 23.37 107.94 24.59 C 118.55 25.61 129.25 25.30 139.90 25.28 C 139.90 23.21 139.91 21.15 139.93 19.08 C 128.30 19.01 116.68 19.01 105.05 18.89 C 98.26 18.88 91.48 17.19 84.71 18.33 M 177.01 18.88 C 165.09 19.00 153.17 19.10 141.25 19.03 C 141.22 21.12 141.20 23.22 141.18 25.32 C 152.02 25.32 162.89 25.54 173.70 24.63 C 175.52 22.87 177.35 20.70 180.04 20.40 C 184.51 19.97 188.80 21.57 192.92 23.08 C 194.09 21.45 195.24 19.81 196.39 18.17 C 189.91 17.36 183.47 18.75 177.01 18.88 M 197.73 19.01 C 196.38 20.80 195.03 22.59 193.44 24.16 C 193.98 24.63 194.54 25.09 195.09 25.56 C 194.34 25.57 192.84 25.59 192.09 25.60 C 185.14 32.37 176.14 36.44 167.53 40.65 C 167.64 40.19 167.86 39.25 167.96 38.79 C 176.50 35.14 184.96 30.62 191.69 24.12 C 186.88 22.29 180.08 19.51 176.04 24.20 C 171.79 28.67 169.36 34.45 165.94 39.52 C 166.45 39.98 166.96 40.46 167.47 40.93 C 158.69 44.46 150.13 48.55 141.82 53.08 C 145.71 56.58 149.53 60.39 151.27 65.47 C 157.53 63.85 163.82 62.30 169.87 60.02 C 173.41 58.80 176.97 57.40 179.81 54.88 C 180.33 54.20 181.13 54.82 181.76 54.91 C 172.56 60.65 162.37 64.75 151.72 66.87 C 151.78 68.40 151.84 69.93 151.90 71.46 C 170.64 69.67 189.27 61.07 200.96 46.01 C 205.30 41.30 203.84 34.36 203.51 28.57 C 201.54 33.71 199.32 39.45 193.96 41.93 C 186.61 45.24 178.28 45.52 170.84 48.63 C 164.96 51.29 158.58 53.44 153.89 58.07 C 154.28 56.88 153.49 54.38 156.10 55.50 C 163.41 50.76 171.27 46.66 179.79 44.62 C 184.94 43.06 190.62 42.65 195.09 39.39 C 199.31 36.29 201.47 31.03 201.96 25.94 C 202.16 22.95 199.68 20.88 197.73 19.01 M 79.27 27.10 C 80.14 34.66 85.89 41.41 93.54 42.66 C 104.13 45.40 114.69 48.84 124.22 54.31 L 124.40 55.67 C 128.48 55.24 131.08 59.52 133.76 61.99 C 131.18 59.81 128.67 57.48 125.64 55.93 C 125.30 56.11 124.62 56.47 124.29 56.65 C 124.10 56.15 123.73 55.16 123.55 54.67 C 113.81 49.93 103.49 46.51 92.98 43.98 C 88.87 43.07 84.78 41.16 82.16 37.77 C 80.13 35.23 79.20 32.07 77.67 29.25 C 76.99 34.70 76.19 41.23 80.02 45.76 C 85.22 52.32 91.64 57.98 98.98 62.02 C 114.56 70.98 133.08 73.18 150.75 71.67 C 150.81 64.53 146.61 58.14 140.83 54.25 C 131.71 48.12 121.21 44.57 111.47 39.61 C 100.88 34.62 90.02 28.87 83.25 18.94 C 81.35 21.25 78.33 23.71 79.27 27.10 M 89.32 24.15 C 96.78 31.13 106.09 35.72 115.30 39.91 C 111.68 34.23 109.07 27.65 103.90 23.14 C 99.53 19.82 93.87 22.73 89.32 24.15 M 108.71 26.17 C 111.88 30.76 113.98 36.08 117.63 40.33 C 123.70 45.80 132.27 45.61 139.92 45.51 C 139.89 39.24 139.83 32.97 139.92 26.71 C 129.51 26.60 119.10 26.82 108.71 26.17 M 141.17 26.70 C 141.17 32.99 141.21 39.28 141.15 45.58 C 148.75 45.57 157.24 45.80 163.36 40.53 C 166.93 36.12 169.39 30.96 172.48 26.22 C 162.05 26.73 151.61 26.65 141.17 26.70 M 59.55 54.48 C 53.36 61.32 50.13 70.13 47.22 78.73 C 53.56 87.00 59.90 95.30 65.60 104.03 C 67.83 107.29 69.30 110.99 70.30 114.80 L 71.12 114.83 C 71.32 104.59 71.42 94.33 70.53 84.13 C 71.79 86.23 70.97 88.66 71.29 90.96 C 71.99 97.93 71.76 104.95 72.10 111.94 C 72.35 116.94 71.56 122.01 72.41 126.96 C 80.97 153.36 85.21 181.16 85.53 208.86 C 84.66 182.36 80.54 155.87 72.24 130.65 C 71.76 133.65 71.64 136.69 71.40 139.73 C 72.11 140.52 73.39 141.99 71.38 141.94 C 69.26 161.69 66.95 181.43 64.24 201.11 C 64.24 211.43 63.43 221.77 64.35 232.07 C 64.87 236.84 65.31 241.88 67.98 246.01 C 71.33 248.27 75.65 247.56 79.48 247.85 C 92.33 248.43 105.19 249.00 118.06 249.34 C 147.37 250.58 176.69 248.80 205.98 247.71 C 207.91 247.60 209.95 247.65 211.74 246.78 C 214.48 245.79 214.88 242.54 215.61 240.12 C 218.33 227.05 216.92 213.64 216.77 200.42 C 213.99 177.73 210.63 155.08 209.31 132.24 L 208.29 132.17 C 202.43 151.64 198.18 171.68 196.70 191.98 C 196.08 197.94 196.31 203.91 195.42 209.84 C 194.85 204.86 196.02 199.94 196.22 194.99 C 197.11 175.52 200.51 156.21 205.59 137.43 C 206.55 133.26 208.46 129.34 209.07 125.10 C 209.35 115.05 208.69 104.96 209.63 94.93 C 210.02 91.67 209.19 88.30 210.57 85.19 C 209.96 95.60 209.28 106.05 210.33 116.46 C 211.56 111.73 213.43 107.16 216.16 103.09 C 221.73 94.71 227.84 86.69 233.94 78.69 C 232.25 73.88 230.64 69.02 228.31 64.48 C 223.59 54.59 214.98 46.78 204.77 42.86 C 198.44 52.72 189.12 60.45 178.57 65.45 C 161.39 73.63 141.58 74.97 122.99 71.94 C 104.41 68.79 86.73 58.70 76.19 42.83 C 70.00 45.66 64.04 49.29 59.55 54.48 M 130.77 46.81 C 133.76 48.65 136.89 50.25 139.93 51.99 C 139.90 50.30 139.87 48.61 139.85 46.91 C 136.82 46.87 133.79 46.79 130.77 46.81 M 141.17 47.03 C 141.19 48.66 141.21 50.29 141.26 51.92 C 144.33 50.27 147.41 48.64 150.39 46.83 C 147.32 46.79 144.24 46.84 141.17 47.03 M 218.21 102.43 C 213.90 108.44 211.27 115.63 210.65 123.00 C 210.10 128.97 210.77 134.95 211.17 140.90 C 212.60 156.95 214.54 172.95 216.64 188.93 C 217.06 192.07 217.24 195.27 218.22 198.31 C 220.15 187.77 222.68 177.35 226.23 167.23 L 225.29 165.95 C 225.88 165.71 226.48 165.48 227.08 165.26 C 227.25 163.87 227.45 162.49 227.68 161.12 C 227.77 163.07 227.95 165.16 226.82 166.87 C 224.12 173.66 222.61 180.87 221.08 188.00 C 220.09 194.24 218.28 200.64 219.74 206.94 C 221.55 217.09 223.09 227.28 224.59 237.48 L 225.65 237.17 C 224.86 244.21 226.77 251.12 227.40 258.09 C 228.31 264.08 229.11 270.43 232.68 275.52 C 234.21 277.92 237.41 277.85 239.93 277.93 C 248.01 277.79 256.09 277.42 264.15 276.82 C 269.53 264.98 269.72 251.64 268.86 238.90 C 267.93 230.69 263.24 223.64 260.02 216.22 C 262.70 221.09 265.62 225.85 267.74 231.00 C 267.99 227.28 267.17 223.61 266.64 219.95 C 262.41 194.58 256.09 169.59 252.53 144.11 L 251.23 144.12 C 248.52 157.64 246.35 171.29 245.66 185.08 C 245.30 189.45 247.60 193.44 247.61 197.76 C 244.07 194.79 246.18 189.91 245.42 186.00 C 245.64 170.18 248.12 154.47 251.15 138.97 C 251.75 136.64 250.98 134.30 250.51 132.02 C 246.17 114.48 240.59 97.27 234.71 80.19 C 228.76 87.24 223.50 94.87 218.21 102.43 M 39.88 99.86 C 36.18 112.13 32.03 124.34 29.73 136.95 C 33.19 155.73 36.57 174.75 35.48 193.93 C 35.75 176.58 33.25 159.34 29.43 142.45 C 27.95 146.71 27.78 151.28 26.81 155.67 C 25.57 163.65 23.79 171.52 22.36 179.47 C 19.21 196.34 14.78 213.06 13.37 230.20 C 13.40 231.51 13.44 232.82 13.49 234.13 C 11.94 237.19 12.23 240.69 12.01 244.01 C 11.60 255.04 12.31 266.47 16.93 276.66 C 24.56 277.58 32.26 277.61 39.93 277.95 C 42.85 277.82 46.72 278.37 48.53 275.48 C 52.23 270.11 52.97 263.39 53.89 257.09 C 54.45 251.01 55.98 244.99 55.71 238.85 C 57.03 236.12 57.21 233.06 57.66 230.12 C 58.86 221.86 60.21 213.63 61.71 205.43 C 62.20 202.57 61.87 199.66 61.53 196.80 C 62.21 197.06 62.89 197.32 63.57 197.57 C 66.03 175.73 69.32 153.96 70.61 132.01 C 71.30 122.33 69.61 112.11 63.98 104.02 C 58.49 95.86 52.76 87.85 46.62 80.16 C 44.00 86.59 42.05 93.27 39.88 99.86 M 71.01 272.80 C 86.21 275.25 101.64 275.87 117.01 276.57 C 148.16 277.26 179.51 277.15 210.42 272.79 C 210.34 264.79 210.40 256.79 210.35 248.79 C 195.89 249.47 181.43 250.05 166.96 250.50 C 135.03 251.88 103.07 250.27 71.19 248.71 C 70.50 256.70 70.72 264.80 71.01 272.80 M 17.51 278.25 C 18.04 286.57 18.72 294.89 19.40 303.21 C 25.25 303.09 31.11 303.16 36.97 303.16 C 38.38 303.02 39.98 303.47 41.23 302.60 C 42.02 294.87 42.66 287.11 43.46 279.38 C 34.81 279.05 26.16 278.77 17.51 278.25 M 237.94 279.41 C 238.29 287.36 239.33 295.25 240.00 303.17 C 247.26 303.11 254.51 303.15 261.77 303.16 C 262.52 294.88 262.99 286.58 263.76 278.31 C 255.15 278.67 246.54 279.05 237.94 279.41 Z" />
<path fill="#1a1a1b" opacity="1.00" d=" M 101.86 60.41 C 108.68 61.68 115.31 63.89 122.29 64.27 C 115.26 65.66 108.12 63.56 101.86 60.41 Z" />
<path fill="#1a1a1b" opacity="1.00" d=" M 53.37 160.30 C 53.93 162.06 54.61 163.79 55.40 165.47 C 55.38 166.07 55.36 167.27 55.35 167.88 C 57.80 176.73 60.99 185.50 61.91 194.70 C 61.84 195.00 61.70 195.60 61.63 195.90 C 59.60 185.25 57.32 174.59 53.87 164.28 C 53.34 163.02 53.45 161.63 53.37 160.30 Z" />
</g>
<g id="#c5c7c9ff">
<path fill="#c5c7c9" opacity="1.00" d=" M 84.71 18.33 C 91.48 17.19 98.26 18.88 105.05 18.89 C 116.68 19.01 128.30 19.01 139.93 19.08 C 139.91 21.15 139.90 23.21 139.90 25.28 C 129.25 25.30 118.55 25.61 107.94 24.59 C 105.85 23.37 104.25 21.29 101.91 20.54 C 97.27 19.77 92.71 21.44 88.45 23.06 C 87.16 21.51 85.92 19.93 84.71 18.33 Z" />
<path fill="#c5c7c9" opacity="1.00" d=" M 177.01 18.88 C 183.47 18.75 189.91 17.36 196.39 18.17 C 195.24 19.81 194.09 21.45 192.92 23.08 C 188.80 21.57 184.51 19.97 180.04 20.40 C 177.35 20.70 175.52 22.87 173.70 24.63 C 162.89 25.54 152.02 25.32 141.18 25.32 C 141.20 23.22 141.22 21.12 141.25 19.03 C 153.17 19.10 165.09 19.00 177.01 18.88 Z" />
<path fill="#c5c7c9" opacity="1.00" d=" M 108.71 26.17 C 119.10 26.82 129.51 26.60 139.92 26.71 C 139.83 32.97 139.89 39.24 139.92 45.51 C 132.27 45.61 123.70 45.80 117.63 40.33 C 113.98 36.08 111.88 30.76 108.71 26.17 Z" />
<path fill="#c5c7c9" opacity="1.00" d=" M 141.17 26.70 C 151.61 26.65 162.05 26.73 172.48 26.22 C 169.39 30.96 166.93 36.12 163.36 40.53 C 157.24 45.80 148.75 45.57 141.15 45.58 C 141.21 39.28 141.17 32.99 141.17 26.70 Z" />
<path fill="#c5c7c9" opacity="1.00" d=" M 130.77 46.81 C 133.79 46.79 136.82 46.87 139.85 46.91 C 139.87 48.61 139.90 50.30 139.93 51.99 C 136.89 50.25 133.76 48.65 130.77 46.81 Z" />
<path fill="#c5c7c9" opacity="1.00" d=" M 141.17 47.03 C 144.24 46.84 147.32 46.79 150.39 46.83 C 147.41 48.64 144.33 50.27 141.26 51.92 C 141.21 50.29 141.19 48.66 141.17 47.03 Z" />
<path fill="#c5c7c9" opacity="1.00" d=" M 13.37 230.20 C 14.88 225.73 17.09 221.48 20.19 217.92 C 18.49 223.53 15.85 228.78 13.49 234.13 C 13.44 232.82 13.40 231.51 13.37 230.20 Z" />
</g>
</svg>
